<mxfile host="app.diagrams.net" modified="2021-03-16T09:34:17.905Z" agent="5.0 (Windows NT 10.0; Win64; x64) AppleWebKit/537.36 (KHTML, like Gecko) Chrome/89.0.4389.82 Safari/537.36" etag="YTRWTwvR6ot39ksPffRq" version="14.4.8" type="github" pages="4">
  <diagram id="cGndrTQ2I52EF4m9U1Xf" name="uran lerak">
    <mxGraphModel dx="1865" dy="548" grid="1" gridSize="10" guides="1" tooltips="1" connect="1" arrows="1" fold="1" page="1" pageScale="1" pageWidth="827" pageHeight="1169" math="0" shadow="0">
      <root>
        <mxCell id="0" />
        <mxCell id="1" parent="0" />
        <mxCell id="9FL1K6J3B2m2VXd5AmQe-39" value="telepes lerak urant" style="shape=umlFrame;whiteSpace=wrap;html=1;width=80;height=40;" parent="1" vertex="1">
          <mxGeometry x="-160" y="20" width="1120" height="570" as="geometry" />
        </mxCell>
        <mxCell id="9FL1K6J3B2m2VXd5AmQe-1" value="SkeletonController" style="html=1;" parent="1" vertex="1">
          <mxGeometry x="39" y="200" width="110" height="50" as="geometry" />
        </mxCell>
        <mxCell id="9FL1K6J3B2m2VXd5AmQe-2" value="t: Telepes" style="html=1;" parent="1" vertex="1">
          <mxGeometry x="520" y="50" width="110" height="50" as="geometry" />
        </mxCell>
        <mxCell id="9FL1K6J3B2m2VXd5AmQe-3" value="u: Uran" style="html=1;" parent="1" vertex="1">
          <mxGeometry x="250" y="40" width="110" height="50" as="geometry" />
        </mxCell>
        <mxCell id="9FL1K6J3B2m2VXd5AmQe-4" value="r: Robot" style="html=1;" parent="1" vertex="1">
          <mxGeometry x="800" y="180" width="110" height="50" as="geometry" />
        </mxCell>
        <mxCell id="9FL1K6J3B2m2VXd5AmQe-5" value="szomsz1: Aszteroida" style="html=1;" parent="1" vertex="1">
          <mxGeometry x="-130" y="380" width="140" height="50" as="geometry" />
        </mxCell>
        <mxCell id="9FL1K6J3B2m2VXd5AmQe-6" value="szomsz2: Teleportkapu" style="html=1;" parent="1" vertex="1">
          <mxGeometry x="520" y="420" width="140" height="50" as="geometry" />
        </mxCell>
        <mxCell id="9FL1K6J3B2m2VXd5AmQe-7" value="a: Aszteroida" style="html=1;" parent="1" vertex="1">
          <mxGeometry x="580" y="320" width="110" height="50" as="geometry" />
        </mxCell>
        <mxCell id="9FL1K6J3B2m2VXd5AmQe-10" value="" style="endArrow=none;html=1;exitX=1;exitY=0.5;exitDx=0;exitDy=0;entryX=0;entryY=0.5;entryDx=0;entryDy=0;" parent="1" source="9FL1K6J3B2m2VXd5AmQe-1" target="9FL1K6J3B2m2VXd5AmQe-7" edge="1">
          <mxGeometry width="50" height="50" relative="1" as="geometry">
            <mxPoint x="220" y="220" as="sourcePoint" />
            <mxPoint x="270" y="170" as="targetPoint" />
          </mxGeometry>
        </mxCell>
        <mxCell id="9FL1K6J3B2m2VXd5AmQe-11" value="" style="endArrow=none;html=1;exitX=0.327;exitY=1.013;exitDx=0;exitDy=0;entryX=0.5;entryY=0;entryDx=0;entryDy=0;exitPerimeter=0;" parent="1" source="9FL1K6J3B2m2VXd5AmQe-1" target="9FL1K6J3B2m2VXd5AmQe-5" edge="1">
          <mxGeometry width="50" height="50" relative="1" as="geometry">
            <mxPoint x="170" y="340" as="sourcePoint" />
            <mxPoint x="220" y="290" as="targetPoint" />
          </mxGeometry>
        </mxCell>
        <mxCell id="9FL1K6J3B2m2VXd5AmQe-12" value="" style="endArrow=none;html=1;exitX=1;exitY=1;exitDx=0;exitDy=0;entryX=0;entryY=0.5;entryDx=0;entryDy=0;" parent="1" source="9FL1K6J3B2m2VXd5AmQe-1" target="9FL1K6J3B2m2VXd5AmQe-6" edge="1">
          <mxGeometry width="50" height="50" relative="1" as="geometry">
            <mxPoint x="310" y="360" as="sourcePoint" />
            <mxPoint x="360" y="310" as="targetPoint" />
          </mxGeometry>
        </mxCell>
        <mxCell id="9FL1K6J3B2m2VXd5AmQe-13" value="" style="endArrow=none;html=1;exitX=0.5;exitY=0;exitDx=0;exitDy=0;entryX=0;entryY=0.5;entryDx=0;entryDy=0;" parent="1" source="9FL1K6J3B2m2VXd5AmQe-1" target="9FL1K6J3B2m2VXd5AmQe-3" edge="1">
          <mxGeometry width="50" height="50" relative="1" as="geometry">
            <mxPoint x="390" y="210" as="sourcePoint" />
            <mxPoint x="440" y="160" as="targetPoint" />
          </mxGeometry>
        </mxCell>
        <mxCell id="9FL1K6J3B2m2VXd5AmQe-14" value="" style="endArrow=none;html=1;exitX=1;exitY=0;exitDx=0;exitDy=0;entryX=0;entryY=0.5;entryDx=0;entryDy=0;" parent="1" source="9FL1K6J3B2m2VXd5AmQe-1" target="9FL1K6J3B2m2VXd5AmQe-2" edge="1">
          <mxGeometry width="50" height="50" relative="1" as="geometry">
            <mxPoint x="440" y="170" as="sourcePoint" />
            <mxPoint x="490" y="120" as="targetPoint" />
          </mxGeometry>
        </mxCell>
        <mxCell id="9FL1K6J3B2m2VXd5AmQe-15" value="" style="endArrow=none;html=1;exitX=1;exitY=0.25;exitDx=0;exitDy=0;entryX=0;entryY=0.5;entryDx=0;entryDy=0;" parent="1" source="9FL1K6J3B2m2VXd5AmQe-1" target="9FL1K6J3B2m2VXd5AmQe-4" edge="1">
          <mxGeometry width="50" height="50" relative="1" as="geometry">
            <mxPoint x="300" y="220" as="sourcePoint" />
            <mxPoint x="350" y="170" as="targetPoint" />
          </mxGeometry>
        </mxCell>
        <mxCell id="9FL1K6J3B2m2VXd5AmQe-16" value="" style="endArrow=none;html=1;exitX=0.5;exitY=0;exitDx=0;exitDy=0;entryX=0.5;entryY=1;entryDx=0;entryDy=0;" parent="1" source="9FL1K6J3B2m2VXd5AmQe-7" target="9FL1K6J3B2m2VXd5AmQe-2" edge="1">
          <mxGeometry width="50" height="50" relative="1" as="geometry">
            <mxPoint x="540" y="120" as="sourcePoint" />
            <mxPoint x="590" y="70" as="targetPoint" />
          </mxGeometry>
        </mxCell>
        <mxCell id="9FL1K6J3B2m2VXd5AmQe-17" value="" style="endArrow=none;html=1;exitX=1;exitY=0.5;exitDx=0;exitDy=0;entryX=0;entryY=1;entryDx=0;entryDy=0;" parent="1" source="9FL1K6J3B2m2VXd5AmQe-7" target="9FL1K6J3B2m2VXd5AmQe-4" edge="1">
          <mxGeometry width="50" height="50" relative="1" as="geometry">
            <mxPoint x="620" y="320" as="sourcePoint" />
            <mxPoint x="670" y="270" as="targetPoint" />
          </mxGeometry>
        </mxCell>
        <mxCell id="9FL1K6J3B2m2VXd5AmQe-19" value="1. &amp;lt;&amp;lt;create&amp;gt;&amp;gt; Aszteroida()" style="html=1;verticalAlign=bottom;endArrow=block;" parent="1" edge="1">
          <mxGeometry x="0.2769" y="-1" width="80" relative="1" as="geometry">
            <mxPoint x="190" y="230" as="sourcePoint" />
            <mxPoint x="300" y="260" as="targetPoint" />
            <mxPoint as="offset" />
          </mxGeometry>
        </mxCell>
        <mxCell id="9FL1K6J3B2m2VXd5AmQe-20" value="2. &amp;lt;&amp;lt;create&amp;gt;&amp;gt; Telepes(a)" style="html=1;verticalAlign=bottom;endArrow=block;" parent="1" edge="1">
          <mxGeometry x="-0.0411" y="-5" width="80" relative="1" as="geometry">
            <mxPoint x="210" y="170" as="sourcePoint" />
            <mxPoint x="300" y="140" as="targetPoint" />
            <mxPoint as="offset" />
          </mxGeometry>
        </mxCell>
        <mxCell id="9FL1K6J3B2m2VXd5AmQe-22" value="3. HajoErkezeik(t)" style="html=1;verticalAlign=bottom;endArrow=block;" parent="1" edge="1">
          <mxGeometry x="-0.1333" y="-3" width="80" relative="1" as="geometry">
            <mxPoint x="590" y="110" as="sourcePoint" />
            <mxPoint x="620" y="200" as="targetPoint" />
            <mxPoint as="offset" />
          </mxGeometry>
        </mxCell>
        <mxCell id="9FL1K6J3B2m2VXd5AmQe-23" value="4. MezoBeallit(a)" style="html=1;verticalAlign=bottom;endArrow=block;" parent="1" edge="1">
          <mxGeometry x="-0.2353" y="2" width="80" relative="1" as="geometry">
            <mxPoint x="620" y="300" as="sourcePoint" />
            <mxPoint x="600" y="220" as="targetPoint" />
            <mxPoint y="1" as="offset" />
          </mxGeometry>
        </mxCell>
        <mxCell id="9FL1K6J3B2m2VXd5AmQe-24" value="5. &amp;lt;&amp;lt;create&amp;gt;&amp;gt; Robot(a)" style="html=1;verticalAlign=bottom;endArrow=block;" parent="1" edge="1">
          <mxGeometry x="-0.3333" width="80" relative="1" as="geometry">
            <mxPoint x="230" y="200" as="sourcePoint" />
            <mxPoint x="340" y="200" as="targetPoint" />
            <mxPoint as="offset" />
          </mxGeometry>
        </mxCell>
        <mxCell id="9FL1K6J3B2m2VXd5AmQe-25" value="6. HajoErkezeik(r)" style="html=1;verticalAlign=bottom;endArrow=block;" parent="1" edge="1">
          <mxGeometry y="14" width="80" relative="1" as="geometry">
            <mxPoint x="810" y="240" as="sourcePoint" />
            <mxPoint x="770" y="280" as="targetPoint" />
            <mxPoint as="offset" />
          </mxGeometry>
        </mxCell>
        <mxCell id="9FL1K6J3B2m2VXd5AmQe-26" value="7. MezoBeallit(a)" style="html=1;verticalAlign=bottom;endArrow=block;" parent="1" edge="1">
          <mxGeometry x="-0.2353" y="2" width="80" relative="1" as="geometry">
            <mxPoint x="700" y="310" as="sourcePoint" />
            <mxPoint x="740" y="270" as="targetPoint" />
            <mxPoint y="1" as="offset" />
          </mxGeometry>
        </mxCell>
        <mxCell id="9FL1K6J3B2m2VXd5AmQe-27" value="8. &amp;lt;&amp;lt;create&amp;gt;&amp;gt; Uran()" style="html=1;verticalAlign=bottom;endArrow=block;" parent="1" edge="1">
          <mxGeometry x="-0.3333" width="80" relative="1" as="geometry">
            <mxPoint x="110" y="160" as="sourcePoint" />
            <mxPoint x="180" y="100" as="targetPoint" />
            <mxPoint as="offset" />
          </mxGeometry>
        </mxCell>
        <mxCell id="9FL1K6J3B2m2VXd5AmQe-31" value="9. AddRakter(u)" style="html=1;verticalAlign=bottom;endArrow=block;" parent="1" edge="1">
          <mxGeometry x="-0.211" y="-2" width="80" relative="1" as="geometry">
            <mxPoint x="380" y="110" as="sourcePoint" />
            <mxPoint x="480" y="80" as="targetPoint" />
            <mxPoint as="offset" />
          </mxGeometry>
        </mxCell>
        <mxCell id="9FL1K6J3B2m2VXd5AmQe-33" value="13. &amp;lt;&amp;lt;create&amp;gt;&amp;gt; Teleportkapu()" style="html=1;verticalAlign=bottom;endArrow=block;" parent="1" edge="1">
          <mxGeometry x="0.1724" y="-3" width="80" relative="1" as="geometry">
            <mxPoint x="220" y="280" as="sourcePoint" />
            <mxPoint x="290" y="310" as="targetPoint" />
            <mxPoint as="offset" />
          </mxGeometry>
        </mxCell>
        <mxCell id="9FL1K6J3B2m2VXd5AmQe-34" value="14. AddSzomszed(szomsz2)" style="html=1;verticalAlign=bottom;endArrow=block;" parent="1" edge="1">
          <mxGeometry x="0.1333" y="-3" width="80" relative="1" as="geometry">
            <mxPoint x="460" y="300" as="sourcePoint" />
            <mxPoint x="550" y="330" as="targetPoint" />
            <mxPoint as="offset" />
          </mxGeometry>
        </mxCell>
        <mxCell id="9FL1K6J3B2m2VXd5AmQe-35" value="15. SetSajatAszteroida(a)" style="html=1;verticalAlign=bottom;endArrow=block;" parent="1" edge="1">
          <mxGeometry width="80" relative="1" as="geometry">
            <mxPoint x="340" y="330" as="sourcePoint" />
            <mxPoint x="410" y="370" as="targetPoint" />
          </mxGeometry>
        </mxCell>
        <mxCell id="9FL1K6J3B2m2VXd5AmQe-36" value="10. &amp;lt;&amp;lt;create&amp;gt;&amp;gt; Aszteroida()" style="html=1;verticalAlign=bottom;endArrow=block;" parent="1" edge="1">
          <mxGeometry x="0.1102" y="-3" width="80" relative="1" as="geometry">
            <mxPoint x="39" y="270" as="sourcePoint" />
            <mxPoint x="-10" y="310" as="targetPoint" />
            <mxPoint as="offset" />
          </mxGeometry>
        </mxCell>
        <mxCell id="9FL1K6J3B2m2VXd5AmQe-37" value="11. AddSzomszed(szomsz1)" style="html=1;verticalAlign=bottom;endArrow=block;" parent="1" edge="1">
          <mxGeometry x="0.1333" y="-3" width="80" relative="1" as="geometry">
            <mxPoint x="340" y="260" as="sourcePoint" />
            <mxPoint x="430" y="290" as="targetPoint" />
            <mxPoint as="offset" />
          </mxGeometry>
        </mxCell>
        <mxCell id="9FL1K6J3B2m2VXd5AmQe-38" value="12. AddSzomszed(a)" style="html=1;verticalAlign=bottom;endArrow=block;" parent="1" edge="1">
          <mxGeometry width="80" relative="1" as="geometry">
            <mxPoint x="20" y="330" as="sourcePoint" />
            <mxPoint x="-30" y="370" as="targetPoint" />
          </mxGeometry>
        </mxCell>
        <mxCell id="Hm71dzM1AlSwNaNX1aZA-1" value="par: Teleportkapu" style="html=1;" parent="1" vertex="1">
          <mxGeometry x="370" y="490" width="110" height="50" as="geometry" />
        </mxCell>
        <mxCell id="Hm71dzM1AlSwNaNX1aZA-2" value="" style="endArrow=none;html=1;entryX=0.75;entryY=1;entryDx=0;entryDy=0;exitX=0.346;exitY=-0.051;exitDx=0;exitDy=0;exitPerimeter=0;" parent="1" source="Hm71dzM1AlSwNaNX1aZA-1" target="9FL1K6J3B2m2VXd5AmQe-1" edge="1">
          <mxGeometry width="50" height="50" relative="1" as="geometry">
            <mxPoint x="260" y="560" as="sourcePoint" />
            <mxPoint x="310" y="510" as="targetPoint" />
          </mxGeometry>
        </mxCell>
        <mxCell id="Hm71dzM1AlSwNaNX1aZA-3" value="16. &amp;lt;&amp;lt;create&amp;gt;&amp;gt; Teleportkapu()" style="html=1;verticalAlign=bottom;endArrow=block;" parent="1" edge="1">
          <mxGeometry x="0.1724" y="-3" width="80" relative="1" as="geometry">
            <mxPoint x="180" y="310" as="sourcePoint" />
            <mxPoint x="240" y="360" as="targetPoint" />
            <mxPoint as="offset" />
          </mxGeometry>
        </mxCell>
        <mxCell id="Hm71dzM1AlSwNaNX1aZA-4" value="18. SetPar(szomsz2)" style="html=1;verticalAlign=bottom;endArrow=block;" parent="1" edge="1">
          <mxGeometry width="80" relative="1" as="geometry">
            <mxPoint x="260" y="370" as="sourcePoint" />
            <mxPoint x="310" y="420" as="targetPoint" />
          </mxGeometry>
        </mxCell>
        <mxCell id="Hm71dzM1AlSwNaNX1aZA-7" value="17. SetPar(par)" style="html=1;verticalAlign=bottom;endArrow=block;" parent="1" edge="1">
          <mxGeometry width="80" relative="1" as="geometry">
            <mxPoint x="430" y="370" as="sourcePoint" />
            <mxPoint x="500" y="410" as="targetPoint" />
          </mxGeometry>
        </mxCell>
        <mxCell id="lhohdEln27SzimqYORcL-1" value="a2: Aszteroida" style="html=1;" parent="1" vertex="1">
          <mxGeometry x="70" y="500" width="110" height="50" as="geometry" />
        </mxCell>
        <mxCell id="lhohdEln27SzimqYORcL-2" value="" style="endArrow=none;html=1;entryX=0.5;entryY=1;entryDx=0;entryDy=0;exitX=0.5;exitY=0;exitDx=0;exitDy=0;" parent="1" source="lhohdEln27SzimqYORcL-1" target="9FL1K6J3B2m2VXd5AmQe-1" edge="1">
          <mxGeometry width="50" height="50" relative="1" as="geometry">
            <mxPoint x="130" y="450" as="sourcePoint" />
            <mxPoint x="180" y="400" as="targetPoint" />
          </mxGeometry>
        </mxCell>
        <mxCell id="lhohdEln27SzimqYORcL-3" value="19. &amp;lt;&amp;lt;create&amp;gt;&amp;gt; Aszteroida()" style="html=1;verticalAlign=bottom;endArrow=block;" parent="1" edge="1">
          <mxGeometry x="0.027" y="5" width="80" relative="1" as="geometry">
            <mxPoint x="120" y="370" as="sourcePoint" />
            <mxPoint x="130" y="430" as="targetPoint" />
            <mxPoint y="-1" as="offset" />
          </mxGeometry>
        </mxCell>
        <mxCell id="lhohdEln27SzimqYORcL-4" value="20. AddSzomszed(par)&amp;nbsp;" style="html=1;verticalAlign=bottom;endArrow=block;" parent="1" edge="1">
          <mxGeometry width="80" relative="1" as="geometry">
            <mxPoint x="130" y="440" as="sourcePoint" />
            <mxPoint x="140" y="500" as="targetPoint" />
          </mxGeometry>
        </mxCell>
        <mxCell id="lhohdEln27SzimqYORcL-5" value="21. SetSzomszed(a2)" style="html=1;verticalAlign=bottom;endArrow=block;" parent="1" edge="1">
          <mxGeometry width="80" relative="1" as="geometry">
            <mxPoint x="320" y="430" as="sourcePoint" />
            <mxPoint x="380" y="480" as="targetPoint" />
          </mxGeometry>
        </mxCell>
        <mxCell id="4Nk4OMgDWAYSSSV4upXP-1" value="" style="endArrow=none;html=1;" edge="1" parent="1" source="9FL1K6J3B2m2VXd5AmQe-3" target="9FL1K6J3B2m2VXd5AmQe-2">
          <mxGeometry width="50" height="50" relative="1" as="geometry">
            <mxPoint x="380" y="310" as="sourcePoint" />
            <mxPoint x="430" y="260" as="targetPoint" />
          </mxGeometry>
        </mxCell>
        <mxCell id="4Nk4OMgDWAYSSSV4upXP-2" value="" style="endArrow=none;html=1;" edge="1" parent="1" source="9FL1K6J3B2m2VXd5AmQe-6" target="9FL1K6J3B2m2VXd5AmQe-7">
          <mxGeometry width="50" height="50" relative="1" as="geometry">
            <mxPoint x="380" y="310" as="sourcePoint" />
            <mxPoint x="430" y="260" as="targetPoint" />
          </mxGeometry>
        </mxCell>
        <mxCell id="4Nk4OMgDWAYSSSV4upXP-3" value="" style="endArrow=none;html=1;" edge="1" parent="1" source="9FL1K6J3B2m2VXd5AmQe-5" target="9FL1K6J3B2m2VXd5AmQe-7">
          <mxGeometry width="50" height="50" relative="1" as="geometry">
            <mxPoint x="380" y="310" as="sourcePoint" />
            <mxPoint x="430" y="260" as="targetPoint" />
          </mxGeometry>
        </mxCell>
        <mxCell id="4Nk4OMgDWAYSSSV4upXP-4" value="" style="endArrow=none;html=1;" edge="1" parent="1" source="lhohdEln27SzimqYORcL-1" target="Hm71dzM1AlSwNaNX1aZA-1">
          <mxGeometry width="50" height="50" relative="1" as="geometry">
            <mxPoint x="380" y="410" as="sourcePoint" />
            <mxPoint x="430" y="360" as="targetPoint" />
          </mxGeometry>
        </mxCell>
        <mxCell id="4Nk4OMgDWAYSSSV4upXP-5" value="" style="endArrow=none;html=1;" edge="1" parent="1" source="Hm71dzM1AlSwNaNX1aZA-1" target="9FL1K6J3B2m2VXd5AmQe-6">
          <mxGeometry width="50" height="50" relative="1" as="geometry">
            <mxPoint x="380" y="410" as="sourcePoint" />
            <mxPoint x="430" y="360" as="targetPoint" />
          </mxGeometry>
        </mxCell>
      </root>
    </mxGraphModel>
  </diagram>
  <diagram id="jZOSFxhqqhnbCBLfSbJ2" name="telepes felrobban">
    <mxGraphModel dx="1038" dy="548" grid="1" gridSize="10" guides="1" tooltips="1" connect="1" arrows="1" fold="1" page="1" pageScale="1" pageWidth="827" pageHeight="1169" math="0" shadow="0">
      <root>
        <mxCell id="fE28yrwp13PNALd54ubo-0" />
        <mxCell id="fE28yrwp13PNALd54ubo-1" parent="fE28yrwp13PNALd54ubo-0" />
        <mxCell id="IId4-qgfH96JZzZ_Dn9f-0" value="telepes felrobban" style="shape=umlFrame;whiteSpace=wrap;html=1;" parent="fE28yrwp13PNALd54ubo-1" vertex="1">
          <mxGeometry x="40" y="60" width="640" height="230" as="geometry" />
        </mxCell>
        <mxCell id="SxeoPl8w95Iu_6kl5tav-0" value="SkeletonController" style="html=1;" parent="fE28yrwp13PNALd54ubo-1" vertex="1">
          <mxGeometry x="79" y="100" width="110" height="50" as="geometry" />
        </mxCell>
        <mxCell id="SxeoPl8w95Iu_6kl5tav-1" value="a: Aszteroida" style="html=1;" parent="fE28yrwp13PNALd54ubo-1" vertex="1">
          <mxGeometry x="490" y="100" width="110" height="50" as="geometry" />
        </mxCell>
        <mxCell id="SxeoPl8w95Iu_6kl5tav-3" value="t: Telepes" style="html=1;" parent="fE28yrwp13PNALd54ubo-1" vertex="1">
          <mxGeometry x="280" y="210" width="110" height="50" as="geometry" />
        </mxCell>
        <mxCell id="SxeoPl8w95Iu_6kl5tav-5" value="" style="endArrow=none;html=1;exitX=1;exitY=0.5;exitDx=0;exitDy=0;entryX=0;entryY=0.5;entryDx=0;entryDy=0;" parent="fE28yrwp13PNALd54ubo-1" source="SxeoPl8w95Iu_6kl5tav-0" target="SxeoPl8w95Iu_6kl5tav-1" edge="1">
          <mxGeometry width="50" height="50" relative="1" as="geometry">
            <mxPoint x="240" y="150" as="sourcePoint" />
            <mxPoint x="290" y="100" as="targetPoint" />
          </mxGeometry>
        </mxCell>
        <mxCell id="SxeoPl8w95Iu_6kl5tav-6" value="" style="endArrow=none;html=1;exitX=0;exitY=0.5;exitDx=0;exitDy=0;entryX=0.691;entryY=1.093;entryDx=0;entryDy=0;entryPerimeter=0;" parent="fE28yrwp13PNALd54ubo-1" source="SxeoPl8w95Iu_6kl5tav-3" target="SxeoPl8w95Iu_6kl5tav-0" edge="1">
          <mxGeometry width="50" height="50" relative="1" as="geometry">
            <mxPoint x="130" y="190" as="sourcePoint" />
            <mxPoint x="180" y="140" as="targetPoint" />
          </mxGeometry>
        </mxCell>
        <mxCell id="SxeoPl8w95Iu_6kl5tav-7" value="" style="endArrow=none;html=1;exitX=1;exitY=0.5;exitDx=0;exitDy=0;entryX=0.5;entryY=1;entryDx=0;entryDy=0;" parent="fE28yrwp13PNALd54ubo-1" source="SxeoPl8w95Iu_6kl5tav-3" target="SxeoPl8w95Iu_6kl5tav-1" edge="1">
          <mxGeometry width="50" height="50" relative="1" as="geometry">
            <mxPoint x="470" y="230" as="sourcePoint" />
            <mxPoint x="520" y="180" as="targetPoint" />
          </mxGeometry>
        </mxCell>
        <mxCell id="SxeoPl8w95Iu_6kl5tav-8" value="1. &amp;lt;&amp;lt;create&amp;gt;&amp;gt; Aszteroida" style="html=1;verticalAlign=bottom;endArrow=block;" parent="fE28yrwp13PNALd54ubo-1" edge="1">
          <mxGeometry width="80" relative="1" as="geometry">
            <mxPoint x="240" y="120" as="sourcePoint" />
            <mxPoint x="320" y="120" as="targetPoint" />
          </mxGeometry>
        </mxCell>
        <mxCell id="SxeoPl8w95Iu_6kl5tav-12" value="2. &amp;lt;&amp;lt;create&amp;gt;&amp;gt;Telepes(a)" style="html=1;verticalAlign=bottom;endArrow=block;" parent="fE28yrwp13PNALd54ubo-1" edge="1">
          <mxGeometry width="80" relative="1" as="geometry">
            <mxPoint x="180" y="160" as="sourcePoint" />
            <mxPoint x="250" y="200" as="targetPoint" />
          </mxGeometry>
        </mxCell>
        <mxCell id="SxeoPl8w95Iu_6kl5tav-13" value="3. HajoErkezik(t)" style="html=1;verticalAlign=bottom;endArrow=block;" parent="fE28yrwp13PNALd54ubo-1" edge="1">
          <mxGeometry x="-0.6" y="4" width="80" relative="1" as="geometry">
            <mxPoint x="400" y="210" as="sourcePoint" />
            <mxPoint x="460" y="180" as="targetPoint" />
            <mxPoint y="-1" as="offset" />
          </mxGeometry>
        </mxCell>
        <mxCell id="SxeoPl8w95Iu_6kl5tav-14" value="4. MezoBeallit(a)" style="html=1;verticalAlign=bottom;endArrow=block;" parent="fE28yrwp13PNALd54ubo-1" edge="1">
          <mxGeometry x="0.1538" y="8" width="80" relative="1" as="geometry">
            <mxPoint x="560" y="160" as="sourcePoint" />
            <mxPoint x="500" y="200" as="targetPoint" />
            <mxPoint x="1" as="offset" />
          </mxGeometry>
        </mxCell>
      </root>
    </mxGraphModel>
  </diagram>
  <diagram id="ZMEtinrI4FBVTUFw5A8d" name="robot felrobban">
    <mxGraphModel dx="1038" dy="1717" grid="1" gridSize="10" guides="1" tooltips="1" connect="1" arrows="1" fold="1" page="1" pageScale="1" pageWidth="827" pageHeight="1169" math="0" shadow="0">
      <root>
        <mxCell id="tNg7Mk-TqXhIMjz5h44o-0" />
        <mxCell id="tNg7Mk-TqXhIMjz5h44o-1" parent="tNg7Mk-TqXhIMjz5h44o-0" />
        <mxCell id="cqcnxdFmE2MbFH7agYnZ-0" value="robot felrobban" style="shape=umlFrame;whiteSpace=wrap;html=1;" parent="tNg7Mk-TqXhIMjz5h44o-1" vertex="1">
          <mxGeometry x="30" y="-20" width="630" height="300" as="geometry" />
        </mxCell>
        <mxCell id="jkEN6lxGWN2_NCcmv1Hr-0" value="SkeletonController" style="html=1;" parent="tNg7Mk-TqXhIMjz5h44o-1" vertex="1">
          <mxGeometry x="80" y="100" width="110" height="50" as="geometry" />
        </mxCell>
        <mxCell id="jkEN6lxGWN2_NCcmv1Hr-1" value="a: Aszteroida" style="html=1;" parent="tNg7Mk-TqXhIMjz5h44o-1" vertex="1">
          <mxGeometry x="490" y="100" width="110" height="50" as="geometry" />
        </mxCell>
        <mxCell id="jkEN6lxGWN2_NCcmv1Hr-2" value="szomsz1: Aszteroida" style="html=1;" parent="tNg7Mk-TqXhIMjz5h44o-1" vertex="1">
          <mxGeometry x="400" width="120" height="50" as="geometry" />
        </mxCell>
        <mxCell id="jkEN6lxGWN2_NCcmv1Hr-3" value="r: Robot" style="html=1;" parent="tNg7Mk-TqXhIMjz5h44o-1" vertex="1">
          <mxGeometry x="280" y="210" width="110" height="50" as="geometry" />
        </mxCell>
        <mxCell id="jkEN6lxGWN2_NCcmv1Hr-4" value="" style="endArrow=none;html=1;entryX=0;entryY=0.5;entryDx=0;entryDy=0;" parent="tNg7Mk-TqXhIMjz5h44o-1" source="jkEN6lxGWN2_NCcmv1Hr-0" target="jkEN6lxGWN2_NCcmv1Hr-2" edge="1">
          <mxGeometry width="50" height="50" relative="1" as="geometry">
            <mxPoint x="180" y="90" as="sourcePoint" />
            <mxPoint x="230" y="40" as="targetPoint" />
          </mxGeometry>
        </mxCell>
        <mxCell id="jkEN6lxGWN2_NCcmv1Hr-5" value="" style="endArrow=none;html=1;exitX=1;exitY=0.5;exitDx=0;exitDy=0;entryX=0;entryY=0.5;entryDx=0;entryDy=0;" parent="tNg7Mk-TqXhIMjz5h44o-1" source="jkEN6lxGWN2_NCcmv1Hr-0" target="jkEN6lxGWN2_NCcmv1Hr-1" edge="1">
          <mxGeometry width="50" height="50" relative="1" as="geometry">
            <mxPoint x="240" y="150" as="sourcePoint" />
            <mxPoint x="290" y="100" as="targetPoint" />
          </mxGeometry>
        </mxCell>
        <mxCell id="jkEN6lxGWN2_NCcmv1Hr-6" value="" style="endArrow=none;html=1;exitX=0;exitY=0.5;exitDx=0;exitDy=0;entryX=0.691;entryY=1.093;entryDx=0;entryDy=0;entryPerimeter=0;" parent="tNg7Mk-TqXhIMjz5h44o-1" source="jkEN6lxGWN2_NCcmv1Hr-3" target="jkEN6lxGWN2_NCcmv1Hr-0" edge="1">
          <mxGeometry width="50" height="50" relative="1" as="geometry">
            <mxPoint x="130" y="190" as="sourcePoint" />
            <mxPoint x="180" y="140" as="targetPoint" />
          </mxGeometry>
        </mxCell>
        <mxCell id="jkEN6lxGWN2_NCcmv1Hr-7" value="" style="endArrow=none;html=1;exitX=1;exitY=0.5;exitDx=0;exitDy=0;entryX=0.5;entryY=1;entryDx=0;entryDy=0;" parent="tNg7Mk-TqXhIMjz5h44o-1" source="jkEN6lxGWN2_NCcmv1Hr-3" target="jkEN6lxGWN2_NCcmv1Hr-1" edge="1">
          <mxGeometry width="50" height="50" relative="1" as="geometry">
            <mxPoint x="470" y="230" as="sourcePoint" />
            <mxPoint x="520" y="180" as="targetPoint" />
          </mxGeometry>
        </mxCell>
        <mxCell id="jkEN6lxGWN2_NCcmv1Hr-8" value="1. &amp;lt;&amp;lt;create&amp;gt;&amp;gt; Aszteroida()" style="html=1;verticalAlign=bottom;endArrow=block;" parent="tNg7Mk-TqXhIMjz5h44o-1" edge="1">
          <mxGeometry width="80" relative="1" as="geometry">
            <mxPoint x="220" y="120" as="sourcePoint" />
            <mxPoint x="300" y="120" as="targetPoint" />
            <mxPoint as="offset" />
          </mxGeometry>
        </mxCell>
        <mxCell id="jkEN6lxGWN2_NCcmv1Hr-9" value="2. &amp;lt;&amp;lt;create&amp;gt;&amp;gt; Aszteroida()" style="html=1;verticalAlign=bottom;endArrow=block;" parent="tNg7Mk-TqXhIMjz5h44o-1" edge="1">
          <mxGeometry x="-0.4138" y="1" width="80" relative="1" as="geometry">
            <mxPoint x="200" y="90" as="sourcePoint" />
            <mxPoint x="270" y="60" as="targetPoint" />
            <mxPoint as="offset" />
          </mxGeometry>
        </mxCell>
        <mxCell id="jkEN6lxGWN2_NCcmv1Hr-10" value="3. AddSzomszed(szomsz1)" style="html=1;verticalAlign=bottom;endArrow=block;" parent="tNg7Mk-TqXhIMjz5h44o-1" edge="1">
          <mxGeometry width="80" relative="1" as="geometry">
            <mxPoint x="370" y="120" as="sourcePoint" />
            <mxPoint x="450" y="120" as="targetPoint" />
          </mxGeometry>
        </mxCell>
        <mxCell id="jkEN6lxGWN2_NCcmv1Hr-11" value="4. AddSzomszed(a)" style="html=1;verticalAlign=bottom;endArrow=block;" parent="tNg7Mk-TqXhIMjz5h44o-1" edge="1">
          <mxGeometry x="-0.1034" y="-4" width="80" relative="1" as="geometry">
            <mxPoint x="295" y="50" as="sourcePoint" />
            <mxPoint x="370" y="20" as="targetPoint" />
            <mxPoint as="offset" />
          </mxGeometry>
        </mxCell>
        <mxCell id="jkEN6lxGWN2_NCcmv1Hr-12" value="5. &amp;lt;&amp;lt;create&amp;gt;&amp;gt;Robot(a)" style="html=1;verticalAlign=bottom;endArrow=block;" parent="tNg7Mk-TqXhIMjz5h44o-1" edge="1">
          <mxGeometry width="80" relative="1" as="geometry">
            <mxPoint x="180" y="160" as="sourcePoint" />
            <mxPoint x="250" y="200" as="targetPoint" />
          </mxGeometry>
        </mxCell>
        <mxCell id="jkEN6lxGWN2_NCcmv1Hr-13" value="6. HajoErkezik(r)" style="html=1;verticalAlign=bottom;endArrow=block;" parent="tNg7Mk-TqXhIMjz5h44o-1" edge="1">
          <mxGeometry x="-0.6" y="4" width="80" relative="1" as="geometry">
            <mxPoint x="400" y="210" as="sourcePoint" />
            <mxPoint x="460" y="180" as="targetPoint" />
            <mxPoint y="-1" as="offset" />
          </mxGeometry>
        </mxCell>
        <mxCell id="jkEN6lxGWN2_NCcmv1Hr-14" value="7. MezoBeallit(a)" style="html=1;verticalAlign=bottom;endArrow=block;" parent="tNg7Mk-TqXhIMjz5h44o-1" edge="1">
          <mxGeometry x="0.1538" y="8" width="80" relative="1" as="geometry">
            <mxPoint x="560" y="160" as="sourcePoint" />
            <mxPoint x="500" y="200" as="targetPoint" />
            <mxPoint x="1" as="offset" />
          </mxGeometry>
        </mxCell>
        <mxCell id="kefMBPvo8ZOLP_2zlrT--0" value="" style="endArrow=none;html=1;" edge="1" parent="tNg7Mk-TqXhIMjz5h44o-1" source="jkEN6lxGWN2_NCcmv1Hr-1" target="jkEN6lxGWN2_NCcmv1Hr-2">
          <mxGeometry width="50" height="50" relative="1" as="geometry">
            <mxPoint x="390" y="120" as="sourcePoint" />
            <mxPoint x="440" y="70" as="targetPoint" />
          </mxGeometry>
        </mxCell>
      </root>
    </mxGraphModel>
  </diagram>
  <diagram id="pWsdqFWlw2FUgayK0x8P" name="kapu felrobban">
    <mxGraphModel dx="1038" dy="548" grid="1" gridSize="10" guides="1" tooltips="1" connect="1" arrows="1" fold="1" page="1" pageScale="1" pageWidth="827" pageHeight="1169" math="0" shadow="0">
      <root>
        <mxCell id="v6jwJLfO85b3WAoEfoh4-0" />
        <mxCell id="v6jwJLfO85b3WAoEfoh4-1" parent="v6jwJLfO85b3WAoEfoh4-0" />
        <mxCell id="v6jwJLfO85b3WAoEfoh4-2" value="Teleportkapu aszteroidája felrobban" style="shape=umlFrame;whiteSpace=wrap;html=1;width=130;height=50;" parent="v6jwJLfO85b3WAoEfoh4-1" vertex="1">
          <mxGeometry x="10" y="20" width="600" height="430" as="geometry" />
        </mxCell>
        <mxCell id="v6jwJLfO85b3WAoEfoh4-3" value="SkeletonController" style="html=1;" parent="v6jwJLfO85b3WAoEfoh4-1" vertex="1">
          <mxGeometry x="40" y="190" width="110" height="50" as="geometry" />
        </mxCell>
        <mxCell id="v6jwJLfO85b3WAoEfoh4-4" value="szomsz2: Teleportkapu" style="html=1;" parent="v6jwJLfO85b3WAoEfoh4-1" vertex="1">
          <mxGeometry x="460" y="40" width="130" height="50" as="geometry" />
        </mxCell>
        <mxCell id="v6jwJLfO85b3WAoEfoh4-5" value="par: Teleportkapu" style="html=1;" parent="v6jwJLfO85b3WAoEfoh4-1" vertex="1">
          <mxGeometry x="470" y="230" width="110" height="50" as="geometry" />
        </mxCell>
        <mxCell id="v6jwJLfO85b3WAoEfoh4-6" value="a: Aszteroida" style="html=1;" parent="v6jwJLfO85b3WAoEfoh4-1" vertex="1">
          <mxGeometry x="240" y="380" width="160" height="50" as="geometry" />
        </mxCell>
        <mxCell id="v6jwJLfO85b3WAoEfoh4-7" value="" style="endArrow=none;html=1;" parent="v6jwJLfO85b3WAoEfoh4-1" source="v6jwJLfO85b3WAoEfoh4-3" target="v6jwJLfO85b3WAoEfoh4-6" edge="1">
          <mxGeometry width="50" height="50" relative="1" as="geometry">
            <mxPoint x="400" y="310" as="sourcePoint" />
            <mxPoint x="450" y="260" as="targetPoint" />
          </mxGeometry>
        </mxCell>
        <mxCell id="v6jwJLfO85b3WAoEfoh4-8" value="" style="endArrow=none;html=1;" parent="v6jwJLfO85b3WAoEfoh4-1" source="v6jwJLfO85b3WAoEfoh4-3" target="v6jwJLfO85b3WAoEfoh4-5" edge="1">
          <mxGeometry width="50" height="50" relative="1" as="geometry">
            <mxPoint x="138.36956521739125" y="220" as="sourcePoint" />
            <mxPoint x="306.63043478260875" y="400" as="targetPoint" />
          </mxGeometry>
        </mxCell>
        <mxCell id="v6jwJLfO85b3WAoEfoh4-9" value="" style="endArrow=none;html=1;" parent="v6jwJLfO85b3WAoEfoh4-1" source="v6jwJLfO85b3WAoEfoh4-3" target="v6jwJLfO85b3WAoEfoh4-4" edge="1">
          <mxGeometry width="50" height="50" relative="1" as="geometry">
            <mxPoint x="148.36956521739125" y="230" as="sourcePoint" />
            <mxPoint x="316.63043478260875" y="410" as="targetPoint" />
          </mxGeometry>
        </mxCell>
        <mxCell id="v6jwJLfO85b3WAoEfoh4-10" value="1: &amp;lt;&amp;lt;create&amp;gt;&amp;gt; Teleportkapu()" style="html=1;verticalAlign=bottom;endArrow=block;" parent="v6jwJLfO85b3WAoEfoh4-1" edge="1">
          <mxGeometry x="-0.8" y="19" width="80" relative="1" as="geometry">
            <mxPoint x="170" y="170" as="sourcePoint" />
            <mxPoint x="230" y="150" as="targetPoint" />
            <mxPoint as="offset" />
          </mxGeometry>
        </mxCell>
        <mxCell id="v6jwJLfO85b3WAoEfoh4-11" value="2: &amp;lt;&amp;lt;create&amp;gt;&amp;gt; Teleportkapu()" style="html=1;verticalAlign=bottom;endArrow=block;" parent="v6jwJLfO85b3WAoEfoh4-1" edge="1">
          <mxGeometry x="0.3171" y="7" width="80" relative="1" as="geometry">
            <mxPoint x="200" y="210" as="sourcePoint" />
            <mxPoint x="300" y="220" as="targetPoint" />
            <mxPoint as="offset" />
          </mxGeometry>
        </mxCell>
        <mxCell id="v6jwJLfO85b3WAoEfoh4-12" value="3: &amp;lt;&amp;lt;create&amp;gt;&amp;gt; Asztreoida()" style="html=1;verticalAlign=bottom;endArrow=block;" parent="v6jwJLfO85b3WAoEfoh4-1" edge="1">
          <mxGeometry x="0.7176" y="15" width="80" relative="1" as="geometry">
            <mxPoint x="160" y="250" as="sourcePoint" />
            <mxPoint x="230" y="310" as="targetPoint" />
            <mxPoint as="offset" />
          </mxGeometry>
        </mxCell>
        <mxCell id="v6jwJLfO85b3WAoEfoh4-13" value="4: SetPar(par)" style="html=1;verticalAlign=bottom;endArrow=block;" parent="v6jwJLfO85b3WAoEfoh4-1" edge="1">
          <mxGeometry x="-0.6" y="6" width="80" relative="1" as="geometry">
            <mxPoint x="270" y="130" as="sourcePoint" />
            <mxPoint x="330" y="110" as="targetPoint" />
            <mxPoint as="offset" />
          </mxGeometry>
        </mxCell>
        <mxCell id="v6jwJLfO85b3WAoEfoh4-14" value="5: SetPar(szomsz2)" style="html=1;verticalAlign=bottom;endArrow=block;" parent="v6jwJLfO85b3WAoEfoh4-1" edge="1">
          <mxGeometry x="-0.0154" y="5" width="80" relative="1" as="geometry">
            <mxPoint x="350" y="220" as="sourcePoint" />
            <mxPoint x="430" y="230" as="targetPoint" />
            <mxPoint as="offset" />
          </mxGeometry>
        </mxCell>
        <mxCell id="v6jwJLfO85b3WAoEfoh4-15" value="6: AddSzomszed(szomsz2)" style="html=1;verticalAlign=bottom;endArrow=block;" parent="v6jwJLfO85b3WAoEfoh4-1" edge="1">
          <mxGeometry x="0.8689" y="22" width="80" relative="1" as="geometry">
            <mxPoint x="250" y="320" as="sourcePoint" />
            <mxPoint x="310" y="370" as="targetPoint" />
            <mxPoint as="offset" />
          </mxGeometry>
        </mxCell>
        <mxCell id="v6jwJLfO85b3WAoEfoh4-16" value="7: SetSajatAszteroida(a)" style="html=1;verticalAlign=bottom;endArrow=block;" parent="v6jwJLfO85b3WAoEfoh4-1" edge="1">
          <mxGeometry x="-1" y="25" width="80" relative="1" as="geometry">
            <mxPoint x="365" y="90" as="sourcePoint" />
            <mxPoint x="425" y="70" as="targetPoint" />
            <mxPoint x="-7" y="4" as="offset" />
          </mxGeometry>
        </mxCell>
        <mxCell id="Ca9tBFz76bbJn8Gk8Mp_-0" value="" style="endArrow=none;html=1;" edge="1" parent="v6jwJLfO85b3WAoEfoh4-1" source="v6jwJLfO85b3WAoEfoh4-4" target="v6jwJLfO85b3WAoEfoh4-5">
          <mxGeometry width="50" height="50" relative="1" as="geometry">
            <mxPoint x="390" y="310" as="sourcePoint" />
            <mxPoint x="440" y="260" as="targetPoint" />
          </mxGeometry>
        </mxCell>
        <mxCell id="Ca9tBFz76bbJn8Gk8Mp_-1" value="" style="endArrow=none;html=1;" edge="1" parent="v6jwJLfO85b3WAoEfoh4-1" source="v6jwJLfO85b3WAoEfoh4-6" target="v6jwJLfO85b3WAoEfoh4-4">
          <mxGeometry width="50" height="50" relative="1" as="geometry">
            <mxPoint x="390" y="310" as="sourcePoint" />
            <mxPoint x="440" y="260" as="targetPoint" />
          </mxGeometry>
        </mxCell>
      </root>
    </mxGraphModel>
  </diagram>
</mxfile>
